<svg width="189" height="65" viewBox="0 0 189 65" fill="none" xmlns="http://www.w3.org/2000/svg">
<path d="M38.27 42.5166C35.9087 42.6816 36.1372 41.4185 37.54 39.584C40.7392 35.3184 46.6616 29.5229 46.9282 25.2891C47.2963 19.792 41.7675 18.0908 36.0737 18.0908C32.1128 18.1924 28.0122 19.2905 25.2192 20.2871C15.5962 23.6831 9.56588 29.0151 5.73824 35.0137C1.7773 40.9424 3.00875 46.6426 11.5654 46.8076C18.0273 46.541 22.3881 44.7446 26.7807 42.4785C26.8125 42.4785 14.5615 45.9761 10.0293 43.4116C9.52779 43.145 9.03268 42.7769 8.89937 41.7485C8.89937 39.6475 12.3652 37.4512 14.3964 36.7529V33.1538C18.4907 34.5884 23.3213 34.1885 27.4536 31.1226C27.5869 31.4907 27.7202 31.9541 27.6884 32.4556H28.3867C28.5517 31.021 27.5869 29.6245 25.9873 29.5229C26.4506 29.8911 26.7871 30.1895 26.9521 30.4561L26.8886 30.5195L26.8569 30.5513C21.5312 34.2837 16.3642 32.5508 15.8691 32.4492L18.8335 29.5483L18.0019 27.4473C23.8989 25.3843 28.7612 23.8799 36.8481 22.4517L35.039 20.9917L35.9721 20.4268C40.7646 21.7598 43.9956 22.7563 43.8305 25.2891C43.767 25.7207 43.5957 26.2222 43.3291 26.7554C41.9008 29.5864 37.705 34.1504 36.0039 36.1182C34.9057 37.4194 33.8076 38.6191 33.0395 39.8188C32.1762 41.0503 31.7382 42.1865 31.7065 43.2148C31.8715 51.5811 56.5512 39.2856 61.4135 36.0483C54.3232 39.0825 46.6298 41.9834 38.27 42.5166ZM43.6655 23.2896C43.8432 23.6196 43.9257 24.0259 43.9257 24.502C43.9194 24.0703 43.8369 23.6577 43.6655 23.2896Z" fill="white"/>
<path d="M85.2868 38.74H76.5568L75.0568 43H71.4868L78.9568 22.12H82.9168L90.3868 43H86.7868L85.2868 38.74ZM84.3268 35.95L80.9368 26.26L77.5168 35.95H84.3268ZM97.0548 20.8V43H93.6348V20.8H97.0548ZM103.285 24.28C102.665 24.28 102.145 24.07 101.725 23.65C101.305 23.23 101.095 22.71 101.095 22.09C101.095 21.47 101.305 20.95 101.725 20.53C102.145 20.11 102.665 19.9 103.285 19.9C103.885 19.9 104.395 20.11 104.815 20.53C105.235 20.95 105.445 21.47 105.445 22.09C105.445 22.71 105.235 23.23 104.815 23.65C104.395 24.07 103.885 24.28 103.285 24.28ZM104.965 26.47V43H101.545V26.47H104.965ZM112.875 28.93C113.455 28.13 114.245 27.48 115.245 26.98C116.265 26.46 117.395 26.2 118.635 26.2C120.095 26.2 121.415 26.55 122.595 27.25C123.775 27.95 124.705 28.95 125.385 30.25C126.065 31.53 126.405 33 126.405 34.66C126.405 36.32 126.065 37.81 125.385 39.13C124.705 40.43 123.765 41.45 122.565 42.19C121.385 42.91 120.075 43.27 118.635 43.27C117.355 43.27 116.215 43.02 115.215 42.52C114.235 42.02 113.455 41.38 112.875 40.6V43H109.455V20.8H112.875V28.93ZM122.925 34.66C122.925 33.52 122.685 32.54 122.205 31.72C121.745 30.88 121.125 30.25 120.345 29.83C119.585 29.39 118.765 29.17 117.885 29.17C117.025 29.17 116.205 29.39 115.425 29.83C114.665 30.27 114.045 30.91 113.565 31.75C113.105 32.59 112.875 33.58 112.875 34.72C112.875 35.86 113.105 36.86 113.565 37.72C114.045 38.56 114.665 39.2 115.425 39.64C116.205 40.08 117.025 40.3 117.885 40.3C118.765 40.3 119.585 40.08 120.345 39.64C121.125 39.18 121.745 38.52 122.205 37.66C122.685 36.8 122.925 35.8 122.925 34.66ZM128.647 34.66C128.647 33 128.987 31.53 129.667 30.25C130.367 28.97 131.307 27.98 132.487 27.28C133.687 26.56 135.007 26.2 136.447 26.2C137.747 26.2 138.877 26.46 139.837 26.98C140.817 27.48 141.597 28.11 142.177 28.87V26.47H145.627V43H142.177V40.54C141.597 41.32 140.807 41.97 139.807 42.49C138.807 43.01 137.667 43.27 136.387 43.27C134.967 43.27 133.667 42.91 132.487 42.19C131.307 41.45 130.367 40.43 129.667 39.13C128.987 37.81 128.647 36.32 128.647 34.66ZM142.177 34.72C142.177 33.58 141.937 32.59 141.457 31.75C140.997 30.91 140.387 30.27 139.627 29.83C138.867 29.39 138.047 29.17 137.167 29.17C136.287 29.17 135.467 29.39 134.707 29.83C133.947 30.25 133.327 30.88 132.847 31.72C132.387 32.54 132.157 33.52 132.157 34.66C132.157 35.8 132.387 36.8 132.847 37.66C133.327 38.52 133.947 39.18 134.707 39.64C135.487 40.08 136.307 40.3 137.167 40.3C138.047 40.3 138.867 40.08 139.627 39.64C140.387 39.2 140.997 38.56 141.457 37.72C141.937 36.86 142.177 35.86 142.177 34.72ZM153.539 28.93C154.119 28.13 154.909 27.48 155.909 26.98C156.929 26.46 158.059 26.2 159.299 26.2C160.759 26.2 162.079 26.55 163.259 27.25C164.439 27.95 165.369 28.95 166.049 30.25C166.729 31.53 167.069 33 167.069 34.66C167.069 36.32 166.729 37.81 166.049 39.13C165.369 40.43 164.429 41.45 163.229 42.19C162.049 42.91 160.739 43.27 159.299 43.27C158.019 43.27 156.879 43.02 155.879 42.52C154.899 42.02 154.119 41.38 153.539 40.6V43H150.119V20.8H153.539V28.93ZM163.589 34.66C163.589 33.52 163.349 32.54 162.869 31.72C162.409 30.88 161.789 30.25 161.009 29.83C160.249 29.39 159.429 29.17 158.549 29.17C157.689 29.17 156.869 29.39 156.089 29.83C155.329 30.27 154.709 30.91 154.229 31.75C153.769 32.59 153.539 33.58 153.539 34.72C153.539 35.86 153.769 36.86 154.229 37.72C154.709 38.56 155.329 39.2 156.089 39.64C156.869 40.08 157.689 40.3 158.549 40.3C159.429 40.3 160.249 40.08 161.009 39.64C161.789 39.18 162.409 38.52 162.869 37.66C163.349 36.8 163.589 35.8 163.589 34.66ZM169.311 34.66C169.311 33 169.651 31.53 170.331 30.25C171.031 28.97 171.971 27.98 173.151 27.28C174.351 26.56 175.671 26.2 177.111 26.2C178.411 26.2 179.541 26.46 180.501 26.98C181.481 27.48 182.261 28.11 182.841 28.87V26.47H186.291V43H182.841V40.54C182.261 41.32 181.471 41.97 180.471 42.49C179.471 43.01 178.331 43.27 177.051 43.27C175.631 43.27 174.331 42.91 173.151 42.19C171.971 41.45 171.031 40.43 170.331 39.13C169.651 37.81 169.311 36.32 169.311 34.66ZM182.841 34.72C182.841 33.58 182.601 32.59 182.121 31.75C181.661 30.91 181.051 30.27 180.291 29.83C179.531 29.39 178.711 29.17 177.831 29.17C176.951 29.17 176.131 29.39 175.371 29.83C174.611 30.25 173.991 30.88 173.511 31.72C173.051 32.54 172.821 33.52 172.821 34.66C172.821 35.8 173.051 36.8 173.511 37.66C173.991 38.52 174.611 39.18 175.371 39.64C176.151 40.08 176.971 40.3 177.831 40.3C178.711 40.3 179.531 40.08 180.291 39.64C181.051 39.2 181.661 38.56 182.121 37.72C182.601 36.86 182.841 35.86 182.841 34.72Z" fill="white" fill-opacity="0.7"/>
</svg>
