<svg width="187" height="55" viewBox="0 0 187 55" fill="none" xmlns="http://www.w3.org/2000/svg">
<path d="M27.8437 6.875C22.1719 6.875 15.9844 8.9375 14.6094 15.9844C14.4375 16.6719 14.9531 17.1875 15.4687 17.1875L21.1406 17.7031C21.6562 17.7031 22.1719 17.1875 22.1719 16.6719C22.6875 14.2656 24.75 13.0625 26.9844 13.0625C28.1875 13.0625 29.5625 13.5781 30.25 14.6094C31.1094 15.8125 30.9375 17.5312 30.9375 18.9062V19.7656C27.5 20.1094 23.0312 20.4531 19.7656 21.8281C15.9844 23.375 13.4062 26.6406 13.4062 31.625C13.4062 37.8125 17.3594 40.9062 22.3437 40.9062C26.6406 40.9062 28.875 39.875 32.1406 36.6094C33.1719 38.1562 33.6875 39.0156 35.5781 40.5625C36.0937 40.7344 36.6094 40.7344 36.9531 40.3906C38.1562 39.3594 40.3906 37.4688 41.5937 36.4375C42.1094 36.0938 41.9375 35.4062 41.5937 34.8906C40.5625 33.3437 39.3594 32.1406 39.3594 29.3906V20.1094C39.3594 16.1562 39.7031 12.5469 36.7812 9.79687C34.5469 7.5625 30.7656 6.875 27.8437 6.875ZM29.3906 24.5781H30.9375V25.9531C30.9375 28.1875 31.1094 30.25 29.9062 32.3125C29.0469 34.0312 27.5 35.0625 25.7812 35.0625C23.5469 35.0625 22.1719 33.3437 22.1719 30.7656C22.1719 26.125 25.6094 24.9219 29.3906 24.5781ZM45.8906 38.5C44.3437 38.5 42.625 38.8438 41.25 39.875C40.9062 40.2188 40.9062 40.5625 41.4219 40.5625C42.9687 40.3906 46.2344 39.875 46.9219 40.7344C47.6094 41.5938 46.2344 44.6875 45.7187 46.0625C45.5469 46.4062 45.8906 46.5781 46.2344 46.4062C48.8125 44.3437 49.5 39.875 48.9844 39.1875C48.6406 38.6719 47.4375 38.5 45.8906 38.5ZM6.35937 39.1875C6.01562 39.1875 5.84374 39.7031 6.18749 39.875C11.8594 45.0312 19.25 47.9531 27.5 47.9531C33.3437 47.9531 40.2187 46.0625 45.0312 42.625C45.8906 42.1094 45.2031 41.0781 44.3437 41.4219C39.0156 43.6562 33.3437 44.6875 28.0156 44.6875C20.2812 44.6875 12.8906 42.625 6.70312 39.0156C6.53125 39.3594 6.35937 39.1875 6.35937 39.1875Z" fill="white" fill-opacity="0.7"/>
<path d="M76.2419 33.74H67.5119L66.0119 38H62.4419L69.9119 17.12H73.8719L81.3419 38H77.7419L76.2419 33.74ZM75.2819 30.95L71.8919 21.26L68.4719 30.95H75.2819ZM104.6 21.2C105.9 21.2 107.06 21.47 108.08 22.01C109.12 22.55 109.93 23.35 110.51 24.41C111.11 25.47 111.41 26.75 111.41 28.25V38H108.02V28.76C108.02 27.28 107.65 26.15 106.91 25.37C106.17 24.57 105.16 24.17 103.88 24.17C102.6 24.17 101.58 24.57 100.82 25.37C100.08 26.15 99.7098 27.28 99.7098 28.76V38H96.3198V28.76C96.3198 27.28 95.9498 26.15 95.2098 25.37C94.4698 24.57 93.4598 24.17 92.1798 24.17C90.8998 24.17 89.8798 24.57 89.1198 25.37C88.3798 26.15 88.0098 27.28 88.0098 28.76V38H84.5898V21.47H88.0098V23.36C88.5698 22.68 89.2798 22.15 90.1398 21.77C90.9998 21.39 91.9198 21.2 92.8998 21.2C94.2198 21.2 95.3998 21.48 96.4398 22.04C97.4798 22.6 98.2798 23.41 98.8398 24.47C99.3398 23.47 100.12 22.68 101.18 22.1C102.24 21.5 103.38 21.2 104.6 21.2ZM114.622 29.66C114.622 28 114.962 26.53 115.642 25.25C116.342 23.97 117.282 22.98 118.462 22.28C119.662 21.56 120.982 21.2 122.422 21.2C123.722 21.2 124.852 21.46 125.812 21.98C126.792 22.48 127.572 23.11 128.152 23.87V21.47H131.602V38H128.152V35.54C127.572 36.32 126.782 36.97 125.782 37.49C124.782 38.01 123.642 38.27 122.362 38.27C120.942 38.27 119.642 37.91 118.462 37.19C117.282 36.45 116.342 35.43 115.642 34.13C114.962 32.81 114.622 31.32 114.622 29.66ZM128.152 29.72C128.152 28.58 127.912 27.59 127.432 26.75C126.972 25.91 126.362 25.27 125.602 24.83C124.842 24.39 124.022 24.17 123.142 24.17C122.262 24.17 121.442 24.39 120.682 24.83C119.922 25.25 119.302 25.88 118.822 26.72C118.362 27.54 118.132 28.52 118.132 29.66C118.132 30.8 118.362 31.8 118.822 32.66C119.302 33.52 119.922 34.18 120.682 34.64C121.462 35.08 122.282 35.3 123.142 35.3C124.022 35.3 124.842 35.08 125.602 34.64C126.362 34.2 126.972 33.56 127.432 32.72C127.912 31.86 128.152 30.86 128.152 29.72ZM139.124 35.21H146.624V38H135.164V35.21L142.694 24.26H135.164V21.47H146.624V24.26L139.124 35.21ZM157.385 38.27C155.825 38.27 154.415 37.92 153.155 37.22C151.895 36.5 150.905 35.5 150.185 34.22C149.465 32.92 149.105 31.42 149.105 29.72C149.105 28.04 149.475 26.55 150.215 25.25C150.955 23.95 151.965 22.95 153.245 22.25C154.525 21.55 155.955 21.2 157.535 21.2C159.115 21.2 160.545 21.55 161.825 22.25C163.105 22.95 164.115 23.95 164.855 25.25C165.595 26.55 165.965 28.04 165.965 29.72C165.965 31.4 165.585 32.89 164.825 34.19C164.065 35.49 163.025 36.5 161.705 37.22C160.405 37.92 158.965 38.27 157.385 38.27ZM157.385 35.3C158.265 35.3 159.085 35.09 159.845 34.67C160.625 34.25 161.255 33.62 161.735 32.78C162.215 31.94 162.455 30.92 162.455 29.72C162.455 28.52 162.225 27.51 161.765 26.69C161.305 25.85 160.695 25.22 159.935 24.8C159.175 24.38 158.355 24.17 157.475 24.17C156.595 24.17 155.775 24.38 155.015 24.8C154.275 25.22 153.685 25.85 153.245 26.69C152.805 27.51 152.585 28.52 152.585 29.72C152.585 31.5 153.035 32.88 153.935 33.86C154.855 34.82 156.005 35.3 157.385 35.3ZM177.686 21.2C178.986 21.2 180.146 21.47 181.166 22.01C182.206 22.55 183.016 23.35 183.596 24.41C184.176 25.47 184.466 26.75 184.466 28.25V38H181.076V28.76C181.076 27.28 180.706 26.15 179.966 25.37C179.226 24.57 178.216 24.17 176.936 24.17C175.656 24.17 174.636 24.57 173.876 25.37C173.136 26.15 172.766 27.28 172.766 28.76V38H169.346V21.47H172.766V23.36C173.326 22.68 174.036 22.15 174.896 21.77C175.776 21.39 176.706 21.2 177.686 21.2Z" fill="white" fill-opacity="0.7"/>
</svg>
