<svg width="120" height="120" viewBox="0 0 120 120" fill="none" xmlns="http://www.w3.org/2000/svg">
<g clip-path="url(#clip0_5_57)">
<path d="M6.31899 90.2789V77.4367C14.1112 84.5646 30.1214 89.1122 48.6609 89.1122C50.5344 89.1122 52.3654 89.0356 54.1708 88.9419L62.6954 80.4173C58.3692 81.039 53.6769 81.4052 48.6609 81.4052C23.7088 81.4052 6.31899 72.6762 6.31899 64.8414V51.9991C14.1112 59.1271 30.1214 63.6832 48.6609 63.6832C56.9811 63.6832 64.7307 62.7294 71.5095 61.0688C72.3526 57.756 73.6811 54.571 75.5121 51.65C68.4097 54.0515 59.2294 55.6185 48.6694 55.6185C23.7173 55.6185 6.3275 46.8895 6.3275 39.0547V27.6772C13.9409 34.1324 31.5777 37.4707 48.6694 37.4707C65.7782 37.4707 83.4065 34.1324 91.0284 27.6772V38.697C92.6635 38.0328 94.3752 37.5218 96.1125 37.1386V25.3864C96.1125 23.5384 94.9713 17.9008 94.9713 16.9981C94.9713 5.96125 71.1093 0 48.6694 0C26.2381 0 2.38456 5.96125 2.38456 16.9981C2.38456 17.8923 1.24341 23.5384 1.24341 25.3864V39.0462C1.24341 41.1497 1.90766 43.1595 3.08288 45.0756L2.92959 45.3396C1.81399 47.2812 1.24341 49.2485 1.24341 51.1901V64.8499C1.24341 66.8852 1.8736 68.8439 2.98069 70.7004L2.92959 70.7856C1.81399 72.7358 1.24341 74.6945 1.24341 76.6361V90.2959C1.24341 100.788 16.8108 109.295 38.1947 111.416C38.5268 109.338 38.8504 107.72 39.1996 106.417C19.4252 104.543 6.31899 97.0832 6.31899 90.2789Z" fill="#636363"/>
<path d="M112.676 50.2363C104.56 42.1205 91.3945 42.1205 83.2702 50.2363C77.3515 56.1549 75.7675 64.7647 78.4842 72.1396L45.6547 104.961C45.1182 105.497 43.3979 119.191 43.3979 119.191L44.207 120C44.207 120 57.3984 117.777 57.9434 117.249L61.0858 114.107H67.7284C68.4863 114.107 69.0995 113.502 69.0995 112.736V106.519H72.4207C73.1787 106.519 73.7833 105.906 73.7833 105.148V101.392L74.2261 100.958H79.5742C80.3407 100.958 80.9538 100.345 80.9538 99.5869V94.2388L90.7644 84.4283C98.1393 87.1449 106.749 85.5695 112.668 79.6338C120.792 71.5179 120.792 58.3521 112.676 50.2363ZM52.459 107.226C51.65 108.026 50.3556 108.026 49.5466 107.226C48.746 106.425 48.746 105.122 49.5466 104.313L79.4635 74.3964C80.0937 75.6397 80.8516 76.8149 81.7543 77.9305L52.459 107.226ZM110.93 62.4228C108.043 65.3097 103.36 65.3097 100.473 62.4228C97.5857 59.5358 97.5857 54.852 100.473 51.965C103.36 49.0866 108.043 49.0781 110.93 51.965C113.817 54.852 113.817 59.5358 110.93 62.4228Z" fill="#636363"/>
</g>
<defs>
<clipPath id="clip0_5_57">
<rect width="120" height="120" fill="white"/>
</clipPath>
</defs>
</svg>
