<svg width="27" height="27" viewBox="0 0 27 27" fill="none" xmlns="http://www.w3.org/2000/svg">
<g id="ep:message">
<path id="Vector" d="M23.625 5.90625V19.4062C23.625 19.8538 23.4472 20.283 23.1307 20.5995C22.8143 20.916 22.3851 21.0938 21.9375 21.0938H5.0625C4.61495 21.0938 4.18573 20.916 3.86926 20.5995C3.55279 20.283 3.375 19.8538 3.375 19.4062V5.90625H23.625ZM23.625 4.21875H3.375C2.92745 4.21875 2.49823 4.39654 2.18176 4.71301C1.86529 5.02947 1.6875 5.4587 1.6875 5.90625V19.4062C1.6875 20.3014 2.04308 21.1598 2.67602 21.7927C3.30895 22.4257 4.16739 22.7812 5.0625 22.7812H21.9375C22.8326 22.7812 23.6911 22.4257 24.324 21.7927C24.9569 21.1598 25.3125 20.3014 25.3125 19.4062V5.90625C25.3125 5.4587 25.1347 5.02947 24.8182 4.71301C24.5018 4.39654 24.0726 4.21875 23.625 4.21875Z" fill="white" fill-opacity="0.75"/>
<path id="Vector_2" d="M3.16406 5.90625L9.68962 13.365C10.1648 13.9082 10.7506 14.3435 11.4078 14.6418C12.065 14.94 12.7783 15.0943 13.5 15.0943C14.2217 15.0943 14.935 14.94 15.5922 14.6418C16.2494 14.3435 16.8352 13.9082 17.3104 13.365L23.8359 5.90625H3.16406ZM21.5933 5.90625L16.0414 12.2529C15.7246 12.6152 15.334 12.9055 14.8959 13.1044C14.4577 13.3033 13.982 13.4062 13.5008 13.4062C13.0196 13.4062 12.544 13.3033 12.1058 13.1044C11.6677 12.9055 11.2771 12.6152 10.9603 12.2529L5.40675 5.90625H21.5933Z" fill="white" fill-opacity="0.75"/>
</g>
</svg>
