<svg width="120" height="120" viewBox="0 0 120 120" fill="none" xmlns="http://www.w3.org/2000/svg">
<path d="M63.0072 8.49365C66.4535 13.4622 69.5945 18.6358 72.4128 23.9857C72.8274 23.927 73.2456 23.8973 73.6644 23.8969C75.3546 23.8972 77.0105 24.3735 78.4426 25.2712C79.8747 26.1689 81.0251 27.4518 81.762 28.9729C85.7685 28.6145 89.7868 28.4024 93.8088 28.3369C96.126 28.3009 98.4528 28.3153 100.79 28.3753C91.9332 16.9573 78.3888 9.37325 63.0072 8.49365ZM55.7136 8.58965C55.5372 8.60405 55.3596 8.61365 55.1832 8.62925C51.1332 16.9165 47.9652 25.1053 45.7008 33.1873C46.6719 33.7882 47.5198 34.5685 48.1992 35.4865C53.6581 33.835 59.1972 32.4612 64.7952 31.3705C65.094 29.6355 65.895 28.0263 67.0992 26.7421C63.8628 20.6053 60.0792 14.5525 55.7136 8.58965ZM47.9856 9.81605C35.4741 12.7965 24.5288 20.3467 17.2992 30.9841C22.8381 32.2544 28.3216 33.7549 33.7356 35.4817C34.4649 34.4986 35.3871 33.6746 36.4458 33.0602C37.5045 32.4457 38.6774 32.0537 39.8928 31.9081C41.9028 24.5845 44.6004 17.2141 47.9856 9.81605ZM97.3332 34.3177C92.3148 34.2853 87.3492 34.4905 82.4316 34.9177C81.9943 36.8151 80.9534 38.5196 79.4652 39.7753C81.1203 44.2252 82.5292 48.7629 83.6856 53.3677C84.8613 53.4925 86.0009 53.8478 87.0392 54.4132C88.0776 54.9786 88.9944 55.743 89.7372 56.6629C96.6936 54.5788 103.778 52.9494 110.946 51.7849C109.98 45.7224 107.933 39.8829 104.902 34.5445C102.366 34.4125 99.8436 34.3345 97.3332 34.3177ZM14.0784 36.4321C11.4817 41.4882 9.74404 46.941 8.93639 52.5673C16.4868 48.2329 24.1656 44.4505 31.9764 41.2417C31.9756 41.2297 31.9748 41.2177 31.974 41.2057C26.1756 39.3553 20.202 37.7797 14.0784 36.4321ZM65.7912 37.2529C60.4515 38.2944 55.1676 39.604 49.9596 41.1769C49.9557 41.2789 49.9501 41.381 49.9428 41.4829C59.2438 45.4237 68.1778 50.1799 76.6404 55.6957C77.0335 55.3347 77.458 55.0094 77.9088 54.7237C76.8108 50.3759 75.4744 46.0918 73.9056 41.8909C73.8252 41.8935 73.7448 41.8951 73.6644 41.8957C72.0571 41.895 70.4793 41.464 69.095 40.6473C67.7107 39.8306 66.5703 38.6581 65.7924 37.2517L65.7912 37.2529ZM34.2072 46.7821C25.458 50.3881 16.86 54.7525 8.40479 59.8333C8.40479 59.8897 8.39999 59.9437 8.39999 60.0001C8.39999 73.6393 13.6716 86.0137 22.2792 95.2285C27.1888 90.8373 32.3113 86.6903 37.6284 82.8025C35.3724 71.6437 35.0448 60.2365 36.5232 48.6685C35.6517 48.1738 34.8689 47.537 34.2072 46.7845V46.7821ZM47.5524 46.9729C46.1699 48.4579 44.3262 49.4321 42.3204 49.7377C41.058 59.6917 41.238 69.4729 42.93 79.0705C52.7196 72.4285 62.9844 66.8437 73.7364 62.3737C73.7363 62.3549 73.7363 62.3361 73.7364 62.3173C73.7373 61.8794 73.7702 61.4423 73.8348 61.0093C65.5167 55.5449 56.7198 50.8469 47.5524 46.9729ZM111.544 57.7657C104.852 58.8721 98.2365 60.3983 91.7364 62.3353C91.7338 63.64 91.4476 64.9285 90.8976 66.1117C96.6107 70.78 102.01 75.8198 107.06 81.1981C110.06 74.534 111.608 67.3081 111.6 60.0001C111.6 59.2513 111.576 58.5061 111.544 57.7657ZM75.762 68.0005C64.7508 72.5977 54.2688 78.42 44.2752 85.4076C46.4592 94.2132 49.9356 102.859 54.75 111.336C56.4756 111.51 58.2276 111.599 60 111.599C66.9984 111.599 73.6644 110.207 79.7436 107.694C81.7752 95.1973 82.1748 83.0089 80.862 71.1181C78.8565 70.6902 77.0572 69.5903 75.762 68.0005ZM86.7792 70.4725C88.0152 81.5725 87.8292 92.9004 86.2872 104.423C93.5774 100.109 99.696 94.07 104.105 86.8369C98.7364 80.9679 92.9457 75.4997 86.7792 70.4761V70.4725ZM39.1272 89.1384C34.8251 92.38 30.658 95.7969 26.6364 99.3805C32.6021 104.446 39.6461 108.082 47.2308 110.01C43.728 103.175 41.0364 96.21 39.1272 89.1384Z" fill="#636363"/>
</svg>
