<svg width="139" height="46" viewBox="0 0 139 46" fill="none" xmlns="http://www.w3.org/2000/svg">
<g clip-path="url(#clip0_5_91)">
<path d="M134.67 28.1125L138.527 30.7052C137.275 32.5644 134.282 35.7543 129.106 35.7543C122.68 35.7543 117.894 30.7395 117.894 24.36C117.894 17.5714 122.73 12.9659 128.565 12.9659C134.434 12.9659 137.309 17.6736 138.239 20.2151L138.746 21.5115L123.627 27.8226C124.777 30.1083 126.57 31.2682 129.106 31.2682C131.643 31.2682 133.402 30.0059 134.67 28.1125ZM122.815 24.0021L132.912 19.7718C132.354 18.3562 130.696 17.3499 128.717 17.3499C126.198 17.3499 122.697 19.6014 122.815 24.0021Z" fill="white" fill-opacity="0.7"/>
<path d="M110.605 1.35013H115.475V34.7138H110.605V1.34985V1.35013Z" fill="white" fill-opacity="0.7"/>
<path d="M102.926 13.8528H107.628V34.1166C107.628 42.5256 102.707 45.9882 96.8887 45.9882C91.4093 45.9882 88.1116 42.2699 86.8769 39.2508L91.1894 37.4426C91.9672 39.3018 93.8445 41.5024 96.8887 41.5024C100.626 41.5024 102.926 39.1654 102.926 34.799V33.1616H102.757C101.641 34.526 99.5101 35.754 96.8042 35.754C91.1555 35.754 85.9802 30.7904 85.9802 24.3942C85.9802 17.9635 91.1555 12.949 96.8042 12.949C99.4933 12.949 101.641 14.16 102.757 15.4905H102.926V13.8531V13.8528ZM103.264 24.3942C103.264 20.3687 100.609 17.4348 97.2269 17.4348C93.8106 17.4348 90.9356 20.3687 90.9356 24.3942C90.9356 28.3683 93.8106 31.251 97.2269 31.251C100.61 31.2682 103.265 28.3683 103.265 24.3942H103.264Z" fill="white" fill-opacity="0.7"/>
<path d="M59.2423 24.3088C59.2423 30.8759 54.1688 35.7029 47.945 35.7029C41.7215 35.7029 36.6477 30.8589 36.6477 24.3088C36.6477 17.7078 41.7215 12.8978 47.945 12.8978C54.1688 12.8978 59.2423 17.7078 59.2423 24.3088ZM54.304 24.3088C54.304 20.2154 51.3611 17.4006 47.945 17.4006C44.5289 17.4006 41.586 20.2154 41.586 24.3088C41.586 28.3683 44.5289 31.2171 47.945 31.2171C51.3613 31.2171 54.304 28.3683 54.304 24.3088Z" fill="white" fill-opacity="0.7"/>
<path d="M83.9172 24.36C83.9172 30.927 78.8434 35.754 72.6199 35.754C66.3961 35.754 61.3226 30.9268 61.3226 24.36C61.3226 17.759 66.3961 12.9659 72.6199 12.9659C78.8434 12.9659 83.9172 17.742 83.9172 24.36ZM78.9618 24.36C78.9618 20.2665 76.0192 17.4518 72.6028 17.4518C69.1867 17.4518 66.2438 20.2665 66.2438 24.36C66.2438 28.4195 69.1867 31.2682 72.6028 31.2682C76.036 31.2682 78.9618 28.4025 78.9618 24.36Z" fill="white" fill-opacity="0.7"/>
<path d="M18.0781 30.7565C10.9918 30.7565 5.44487 24.9912 5.44487 17.8442C5.44487 10.6975 10.9918 4.93217 18.0781 4.93217C21.9004 4.93217 24.6907 6.45017 26.754 8.39476L30.1535 4.96639C27.2785 2.18613 23.4394 0.0706787 18.0781 0.0706787C8.37066 0.0709525 0.201965 8.05387 0.201965 17.8442C0.201965 27.6351 8.37066 35.6177 18.0781 35.6177C23.321 35.6177 27.2785 33.8779 30.3734 30.6371C33.5527 27.4303 34.5336 22.9272 34.5336 19.277C34.5336 18.1342 34.3984 16.9573 34.2461 16.0874H18.0781V20.8293H29.5953C29.257 23.7974 28.3269 25.8271 26.957 27.2085C25.2996 28.8973 22.6784 30.7565 18.0781 30.7565Z" fill="white" fill-opacity="0.7"/>
</g>
<defs>
<clipPath id="clip0_5_91">
<rect width="139" height="46" fill="white"/>
</clipPath>
</defs>
</svg>
