<svg width="172" height="37" viewBox="0 0 172 37" fill="none" xmlns="http://www.w3.org/2000/svg">
<g clip-path="url(#clip0_5_90)">
<path d="M172 16.6328V13.6038H168.244V8.89543L168.117 8.93411L164.589 10.0152L164.52 10.0364V13.6038H158.951V11.6166C158.951 10.6913 159.157 9.98289 159.565 9.51098C159.969 9.0441 160.548 8.80697 161.286 8.80697C161.816 8.80697 162.365 8.9321 162.918 9.17865L163.057 9.24054V6.05114L162.992 6.02759C162.476 5.84159 161.774 5.74841 160.905 5.74841C159.81 5.74841 158.814 5.98689 157.946 6.46016C157.09 6.92093 156.385 7.61879 155.915 8.47027C155.438 9.32934 155.196 10.3213 155.196 11.4192V13.6042H152.58V16.6331H155.196V29.3924H158.951V16.6328H164.52V24.7412C164.52 28.0806 166.093 29.7732 169.195 29.7732C169.731 29.7701 170.266 29.7105 170.79 29.5956C171.347 29.4755 171.727 29.3554 171.951 29.2273L172 29.198V26.1411L171.848 26.2424C171.644 26.3786 171.39 26.4896 171.092 26.572C170.793 26.6561 170.544 26.6985 170.351 26.6985C169.624 26.6985 169.086 26.5024 168.752 26.1152C168.415 25.725 168.244 25.0419 168.244 24.0866V16.6328H172ZM144.195 26.6988C142.832 26.6988 141.758 26.2461 141 25.355C140.239 24.459 139.852 23.1821 139.852 21.5592C139.852 19.8851 140.239 18.575 141.001 17.6631C141.759 16.7576 142.823 16.2978 144.165 16.2978C145.466 16.2978 146.503 16.7367 147.245 17.6035C147.991 18.4744 148.37 19.7741 148.37 21.4677C148.37 23.1821 148.014 24.4993 147.312 25.3803C146.615 26.2548 145.566 26.6988 144.195 26.6988ZM144.362 13.2234C141.762 13.2234 139.697 13.9863 138.225 15.4908C136.753 16.9957 136.007 19.0778 136.007 21.6806C136.007 24.1525 136.735 26.1408 138.172 27.5895C139.608 29.0386 141.563 29.7725 143.982 29.7725C146.502 29.7725 148.526 28.9992 149.998 27.4738C151.47 25.9501 152.216 23.8875 152.216 21.3453C152.216 18.835 151.516 16.8319 150.136 15.393C148.754 13.9533 146.811 13.2234 144.362 13.2234ZM129.953 13.2234C128.184 13.2234 126.721 13.6765 125.603 14.5695C124.479 15.468 123.909 16.6466 123.909 18.0724C123.909 18.8134 124.032 19.4717 124.274 20.0301C124.518 20.5905 124.895 21.0836 125.396 21.4976C125.894 21.9083 126.661 22.3385 127.679 22.7758C128.534 23.1283 129.172 23.4267 129.577 23.6615C129.973 23.8919 130.254 24.1233 130.413 24.3486C130.567 24.569 130.645 24.871 130.645 25.2434C130.645 26.3043 129.852 26.8202 128.22 26.8202C127.614 26.8202 126.923 26.6938 126.167 26.4442C125.416 26.1983 124.707 25.8383 124.065 25.3769L123.909 25.2652V28.8845L123.966 28.9114C124.497 29.157 125.167 29.3638 125.957 29.527C126.745 29.6898 127.46 29.7728 128.083 29.7728C130.002 29.7728 131.547 29.3177 132.675 28.4193C133.81 27.5145 134.385 26.3086 134.385 24.833C134.385 23.7691 134.076 22.8562 133.465 22.1202C132.859 21.3903 131.807 20.72 130.34 20.1276C129.171 19.6577 128.422 19.2679 128.113 18.9685C127.815 18.6792 127.664 18.2702 127.664 17.7526C127.664 17.2931 127.85 16.9254 128.234 16.6274C128.62 16.3281 129.158 16.1757 129.831 16.1757C130.457 16.1757 131.097 16.2746 131.734 16.4683C132.37 16.6624 132.928 16.9224 133.395 17.2399L133.548 17.3449V13.9113L133.49 13.8861C133.06 13.7011 132.492 13.543 131.803 13.4151C131.116 13.288 130.494 13.2234 129.953 13.2234ZM114.12 26.6988C112.757 26.6988 111.683 26.2461 110.926 25.355C110.164 24.459 109.778 23.1821 109.778 21.5592C109.778 19.8851 110.164 18.575 110.927 17.6631C111.683 16.7576 112.747 16.2978 114.09 16.2978C115.392 16.2978 116.428 16.7367 117.17 17.6035C117.916 18.4744 118.295 19.7741 118.295 21.4677C118.295 23.1821 117.939 24.4993 117.237 25.3803C116.539 26.2548 115.491 26.6988 114.12 26.6988ZM114.288 13.2234C111.687 13.2234 109.621 13.9863 108.15 15.4908C106.679 16.9957 105.932 19.0778 105.932 21.6806C105.932 24.1536 106.661 26.1408 108.097 27.5895C109.533 29.0386 111.488 29.7725 113.907 29.7725C116.427 29.7725 118.452 28.9992 119.924 27.4738C121.395 25.9501 122.141 23.8875 122.141 21.3453C122.141 18.835 121.441 16.8319 120.06 15.393C118.679 13.9533 116.736 13.2234 114.288 13.2234ZM100.232 16.3382V13.6038H96.5229V29.3918H100.232V21.3153C100.232 19.9419 100.543 18.8138 101.157 17.9618C101.762 17.1199 102.57 16.693 103.555 16.693C103.889 16.693 104.264 16.7482 104.67 16.8575C105.073 16.9658 105.364 17.0835 105.535 17.2073L105.691 17.3207V13.5769L105.631 13.551C105.286 13.404 104.797 13.33 104.179 13.33C103.247 13.33 102.413 13.6297 101.698 14.2201C101.071 14.7391 100.618 15.4508 100.271 16.3382H100.232ZM89.8808 13.2234C88.1792 13.2234 86.6611 13.589 85.3701 14.3092C84.0768 15.0307 83.076 16.0617 82.3954 17.3718C81.7178 18.6792 81.3738 20.2063 81.3738 21.9093C81.3738 23.4008 81.7074 24.7698 82.3665 25.976C83.0263 27.1845 83.9602 28.1301 85.142 28.786C86.3225 29.4409 87.6868 29.7728 89.1968 29.7728C90.9595 29.7728 92.4645 29.42 93.6715 28.7244L93.7199 28.6962V25.2938L93.5643 25.4079C93.0091 25.8107 92.3976 26.1294 91.7496 26.3537C91.0938 26.5828 90.4966 26.6985 89.9725 26.6985C88.5169 26.6985 87.3488 26.2427 86.5006 25.344C85.6506 24.4435 85.2196 23.1798 85.2196 21.5891C85.2196 19.9887 85.6691 18.6924 86.5547 17.7354C87.4378 16.7818 88.6082 16.2981 90.0336 16.2981C91.2527 16.2981 92.4406 16.7115 93.5643 17.5279L93.7199 17.6409V14.0559L93.6698 14.0277C93.2465 13.7905 92.6701 13.5948 91.9538 13.4464C91.241 13.2984 90.5436 13.2234 89.8808 13.2234ZM78.8194 13.6038H75.1099V29.3918H78.8194V13.6038ZM77.0026 6.87826C76.3922 6.87826 75.8597 7.08647 75.4224 7.49851C74.983 7.91224 74.7599 8.43293 74.7599 9.04713C74.7599 9.65191 74.9803 10.1628 75.415 10.5655C75.8473 10.9668 76.3815 11.1703 77.0026 11.1703C77.6234 11.1703 78.1596 10.9668 78.597 10.5661C79.037 10.1628 79.2604 9.65191 79.2604 9.04713C79.2604 8.45446 79.0431 7.93881 78.6151 7.51533C78.1875 7.09252 77.6446 6.87826 77.0026 6.87826ZM67.7482 12.4394V29.3914H71.5335V7.36161H66.2946L59.6353 23.7247L53.1732 7.36161H47.7209V29.3918H51.2782V12.4377H51.4005L58.2244 29.3918H60.9085L67.6259 12.439L67.7482 12.4394Z" fill="white" fill-opacity="0.7"/>
<path d="M17.4483 17.4704H0V0H17.4483V17.4704Z" fill="white" fill-opacity="0.7"/>
<path d="M36.7136 17.4704H19.2653V0H36.7136V17.4704Z" fill="white" fill-opacity="0.7"/>
<path d="M17.4479 36.7669H0V19.2965H17.4479V36.7669Z" fill="white" fill-opacity="0.7"/>
<path d="M36.7136 36.7669H19.2653V19.2965H36.7136V36.7669Z" fill="white" fill-opacity="0.7"/>
</g>
<defs>
<clipPath id="clip0_5_90">
<rect width="172" height="37" fill="white"/>
</clipPath>
</defs>
</svg>
